<svg width="61" height="60" viewBox="0 0 61 60" fill="none" xmlns="http://www.w3.org/2000/svg">
<path d="M60.107 57.0108C60.9061 53.9261 51.1857 48.6757 37.5606 44.5491C50.0159 46.9036 59.5469 46.7806 60.2883 43.9257C61.0873 40.841 51.3669 35.5906 37.7418 31.4641C50.1972 33.8185 59.7281 33.6955 60.4695 30.8406C61.2685 27.7559 51.5481 22.5055 37.9231 18.379C50.3784 20.7334 59.9093 20.6104 60.6507 17.7555C61.5651 14.2442 48.8544 7.93549 32.2721 3.66129C15.6897 -0.6129 1.50446 -1.23639 0.590083 2.27485C-0.208969 5.35949 9.51145 10.6099 23.1365 14.7365C10.6812 12.382 1.15024 12.505 0.408854 15.3599C-0.390197 18.4446 9.33022 23.695 22.9553 27.8216C10.5 25.4671 0.969014 25.5901 0.227626 28.445C-0.571425 31.5297 9.14899 36.7801 22.774 40.9067C10.3105 38.5522 0.787786 38.6752 0.0463983 41.5301C-0.86798 45.0414 11.8427 51.3501 28.4251 55.6243C45.0074 59.8985 59.1927 60.522 60.107 57.0108ZM6.43881 3.78435C7.13077 1.13452 18.507 1.77441 31.8602 5.21181C45.2134 8.64922 55.4775 13.5879 54.7855 16.246C54.0936 18.8958 42.7174 18.2559 29.3642 14.8185C16.011 11.3811 5.74685 6.44239 6.43881 3.78435ZM6.25758 16.8694C6.94954 14.2196 18.3257 14.8595 31.6789 18.2969C45.0322 21.7343 55.2963 26.673 54.6043 29.3311C53.9123 31.9809 42.5362 31.341 29.1829 27.9036C15.8297 24.4662 5.56562 19.5275 6.25758 16.8694ZM6.08459 29.9545C6.77655 27.3047 18.1527 27.9446 31.506 31.382C44.8592 34.8194 55.1233 39.7581 54.4313 42.4162C53.7393 45.066 42.3632 44.4261 29.0099 40.9887C15.6567 37.5513 5.39263 32.6126 6.08459 29.9545ZM28.8287 54.0738C15.4755 50.6282 5.2114 45.6895 5.90336 43.0396C6.59532 40.3898 17.9715 41.0297 31.3247 44.4671C44.6779 47.9045 54.942 52.8432 54.2501 55.5013C53.5581 58.1511 42.1819 57.5112 28.8287 54.0738Z" fill="#A0F26E"/>
</svg>
