<svg width="281" height="62" viewBox="0 0 281 62" fill="none" xmlns="http://www.w3.org/2000/svg">
<path d="M60.107 57.0108C60.9061 53.9261 51.1857 48.6757 37.5606 44.5491C50.0159 46.9036 59.5469 46.7806 60.2883 43.9257C61.0873 40.841 51.3669 35.5906 37.7418 31.4641C50.1972 33.8185 59.7281 33.6955 60.4695 30.8406C61.2685 27.7559 51.5481 22.5055 37.9231 18.379C50.3784 20.7334 59.9093 20.6104 60.6507 17.7555C61.5651 14.2442 48.8544 7.93549 32.2721 3.66129C15.6897 -0.6129 1.50446 -1.23639 0.590083 2.27485C-0.208969 5.35949 9.51145 10.6099 23.1365 14.7365C10.6812 12.382 1.15024 12.505 0.408854 15.3599C-0.390197 18.4446 9.33022 23.695 22.9553 27.8216C10.5 25.4671 0.969014 25.5901 0.227626 28.445C-0.571425 31.5297 9.14899 36.7801 22.774 40.9067C10.3105 38.5522 0.787786 38.6752 0.0463983 41.5301C-0.86798 45.0414 11.8427 51.3501 28.4251 55.6243C45.0074 59.8985 59.1927 60.522 60.107 57.0108ZM6.43881 3.78435C7.13077 1.13452 18.507 1.77441 31.8602 5.21181C45.2134 8.64922 55.4775 13.5879 54.7855 16.246C54.0936 18.8958 42.7174 18.2559 29.3642 14.8185C16.011 11.3811 5.74685 6.44239 6.43881 3.78435ZM6.25758 16.8694C6.94954 14.2196 18.3257 14.8595 31.6789 18.2969C45.0322 21.7343 55.2963 26.673 54.6043 29.3311C53.9123 31.9809 42.5362 31.341 29.1829 27.9036C15.8297 24.4662 5.56562 19.5275 6.25758 16.8694ZM6.08459 29.9545C6.77655 27.3047 18.1527 27.9446 31.506 31.382C44.8592 34.8194 55.1233 39.7581 54.4313 42.4162C53.7393 45.066 42.3632 44.4261 29.0099 40.9887C15.6567 37.5513 5.39263 32.6126 6.08459 29.9545ZM28.8287 54.0738C15.4755 50.6282 5.2114 45.6895 5.90336 43.0396C6.59532 40.3898 17.9715 41.0297 31.3247 44.4671C44.6779 47.9045 54.942 52.8432 54.2501 55.5013C53.5581 58.1511 42.1819 57.5112 28.8287 54.0738Z" fill="#A0F26E"/>
<path d="M258.626 61.7365C255.807 61.7365 253.298 61.4737 251.1 60.9481C248.901 60.4224 246.978 59.6936 245.329 58.7618C243.681 57.8299 242.271 56.7308 241.1 55.4645C239.953 54.1742 239.021 52.7764 238.305 51.2711C237.588 49.7659 237.062 48.1769 236.728 46.5044C236.417 44.8318 236.262 43.1354 236.262 41.415C236.262 39.7186 236.417 38.046 236.728 36.3974C237.062 34.7248 237.588 33.1359 238.305 31.6306C239.021 30.1014 239.953 28.7036 241.1 27.4373C242.247 26.147 243.645 25.036 245.294 24.1041C246.966 23.1484 248.901 22.4077 251.1 21.882C253.298 21.3325 255.807 21.0577 258.626 21.0577C261.446 21.0577 263.954 21.3325 266.153 21.882C268.351 22.4077 270.274 23.1484 271.923 24.1041C273.595 25.036 275.005 26.147 276.152 27.4373C277.299 28.7036 278.231 30.1014 278.948 31.6306C279.664 33.1359 280.178 34.7248 280.489 36.3974C280.823 38.046 280.991 39.7186 280.991 41.415C280.991 43.1354 280.823 44.8318 280.489 46.5044C280.178 48.1769 279.664 49.7659 278.948 51.2711C278.231 52.7764 277.287 54.1742 276.116 55.4645C274.969 56.7308 273.572 57.8299 271.923 58.7618C270.274 59.6936 268.351 60.4224 266.153 60.9481C263.954 61.4737 261.446 61.7365 258.626 61.7365ZM251.745 41.415C251.745 42.7053 251.864 43.9717 252.103 45.2141C252.342 46.4327 252.724 47.5318 253.25 48.5114C253.8 49.4672 254.504 50.2437 255.365 50.8411C256.249 51.4145 257.336 51.7012 258.626 51.7012C259.916 51.7012 260.992 51.4145 261.852 50.8411C262.736 50.2437 263.441 49.4672 263.966 48.5114C264.516 47.5318 264.91 46.4327 265.149 45.2141C265.388 43.9717 265.507 42.7053 265.507 41.415C265.507 40.1248 265.388 38.8704 265.149 37.6518C264.91 36.4093 264.516 35.3102 263.966 34.3545C263.441 33.3748 262.736 32.5863 261.852 31.989C260.992 31.3917 259.916 31.093 258.626 31.093C257.336 31.093 256.249 31.3917 255.365 31.989C254.504 32.5863 253.8 33.3748 253.25 34.3545C252.724 35.3102 252.342 36.4093 252.103 37.6518C251.864 38.8704 251.745 40.1248 251.745 41.415Z" fill="#E8F6DA"/>
<path d="M224.681 22.0252H240.558L225.828 40.2321L241.275 60.697H223.355L211.707 42.4542L210.488 43.7086V60.697H195.005V5.64612H210.488V39.2644L224.681 22.0252Z" fill="#E8F6DA"/>
<path d="M168.587 61.7365C165.768 61.7365 163.259 61.4737 161.061 60.9481C158.862 60.4224 156.939 59.6936 155.29 58.7618C153.642 57.8299 152.232 56.7308 151.061 55.4645C149.914 54.1742 148.982 52.7764 148.266 51.2711C147.549 49.7659 147.023 48.1769 146.689 46.5044C146.378 44.8318 146.223 43.1354 146.223 41.415C146.223 39.7186 146.378 38.046 146.689 36.3974C147.023 34.7248 147.549 33.1359 148.266 31.6306C148.982 30.1014 149.914 28.7036 151.061 27.4373C152.208 26.147 153.606 25.036 155.254 24.1041C156.927 23.1484 158.862 22.4077 161.061 21.882C163.259 21.3325 165.768 21.0577 168.587 21.0577C171.407 21.0577 173.915 21.3325 176.114 21.882C178.312 22.4077 180.235 23.1484 181.884 24.1041C183.556 25.036 184.966 26.147 186.113 27.4373C187.26 28.7036 188.192 30.1014 188.909 31.6306C189.625 33.1359 190.139 34.7248 190.45 36.3974C190.784 38.046 190.951 39.7186 190.951 41.415C190.951 43.1354 190.784 44.8318 190.45 46.5044C190.139 48.1769 189.625 49.7659 188.909 51.2711C188.192 52.7764 187.248 54.1742 186.077 55.4645C184.93 56.7308 183.533 57.8299 181.884 58.7618C180.235 59.6936 178.312 60.4224 176.114 60.9481C173.915 61.4737 171.407 61.7365 168.587 61.7365ZM161.706 41.415C161.706 42.7053 161.825 43.9717 162.064 45.2141C162.303 46.4327 162.685 47.5318 163.211 48.5114C163.761 49.4672 164.465 50.2437 165.326 50.8411C166.21 51.4145 167.297 51.7012 168.587 51.7012C169.877 51.7012 170.953 51.4145 171.813 50.8411C172.697 50.2437 173.402 49.4672 173.927 48.5114C174.477 47.5318 174.871 46.4327 175.11 45.2141C175.349 43.9717 175.468 42.7053 175.468 41.415C175.468 40.1248 175.349 38.8704 175.11 37.6518C174.871 36.4093 174.477 35.3102 173.927 34.3545C173.402 33.3748 172.697 32.5863 171.813 31.989C170.953 31.3917 169.877 31.093 168.587 31.093C167.297 31.093 166.21 31.3917 165.326 31.989C164.465 32.5863 163.761 33.3748 163.211 34.3545C162.685 35.3102 162.303 36.4093 162.064 37.6518C161.825 38.8704 161.706 40.1248 161.706 41.415Z" fill="#E8F6DA"/>
<path d="M115.718 22.0254H130.448C130.4 22.6466 130.365 23.3395 130.341 24.1041C130.317 24.8448 130.305 25.6333 130.305 26.4696C130.305 27.282 130.305 28.1063 130.305 28.9426C130.305 29.7788 130.305 30.5793 130.305 31.3439C130.783 30.1731 131.404 28.9784 132.169 27.7598C132.933 26.5174 133.829 25.4063 134.857 24.4267C135.908 23.447 137.091 22.6466 138.405 22.0254C139.743 21.3802 141.236 21.0577 142.885 21.0577C143.195 21.0577 143.53 21.0816 143.888 21.1294C144.271 21.1533 144.641 21.201 144.999 21.2727C145.358 21.3444 145.692 21.44 146.003 21.5594C146.337 21.655 146.612 21.7745 146.827 21.9178L145.573 36.6841C144.498 36.2779 143.363 35.9792 142.168 35.7881C140.973 35.573 139.934 35.4655 139.05 35.4655C137.831 35.4655 136.756 35.6208 135.824 35.9315C134.916 36.2182 134.14 36.6005 133.495 37.0783C132.849 37.5562 132.336 38.0819 131.953 38.6553C131.595 39.2288 131.344 39.7903 131.201 40.3398V60.6972H115.718V22.0254Z" fill="#E8F6DA"/>
<path d="M66.791 10.0187H86.3599C89.7528 10.0187 92.7275 10.2338 95.2841 10.6639C97.8647 11.0701 100.099 11.6554 101.986 12.42C103.874 13.1846 105.439 14.1045 106.681 15.1798C107.948 16.255 108.951 17.4377 109.692 18.728C110.457 19.9943 110.994 21.3563 111.305 22.8138C111.615 24.2713 111.771 25.7766 111.771 27.3297C111.771 28.6438 111.615 29.958 111.305 31.2721C111.018 32.5863 110.516 33.8407 109.8 35.0353C109.107 36.23 108.175 37.3411 107.004 38.3685C105.833 39.3959 104.388 40.2919 102.667 41.0565C100.971 41.8211 98.9518 42.4185 96.6102 42.8486C94.2926 43.2786 91.6165 43.4937 88.582 43.4937C88.1519 43.4937 87.6143 43.4937 86.9692 43.4937C86.324 43.4698 85.6909 43.4339 85.0696 43.3862L82.8475 43.2428V60.6971H66.791V10.0187ZM82.8475 35.4654H86.5391C88.2594 35.4654 89.705 35.2623 90.8758 34.8561C92.0466 34.4261 92.9904 33.8526 93.7072 33.1358C94.424 32.419 94.9377 31.5708 95.2483 30.5911C95.5589 29.6115 95.7142 28.5602 95.7142 27.4372C95.7142 25.6452 95.4872 24.1638 95.0333 22.993C94.5793 21.8222 93.9342 20.8903 93.0979 20.1974C92.2855 19.4806 91.3178 18.9788 90.1948 18.6921C89.0718 18.4054 87.8532 18.262 86.5391 18.262H82.8475V35.4654Z" fill="#E8F6DA"/>
</svg>
